<svg width="25" height="24" viewBox="0 0 25 24" fill="none" xmlns="http://www.w3.org/2000/svg">
<g clip-path="url(#clip0_213_3281)">
<path d="M24.5839 7.1998C24.5839 7.1998 24.3496 5.54512 23.6277 4.81855C22.7136 3.8623 21.6917 3.85762 21.223 3.80137C17.8667 3.55762 12.8277 3.55762 12.8277 3.55762H12.8183C12.8183 3.55762 7.77925 3.55762 4.423 3.80137C3.95425 3.85762 2.93237 3.8623 2.01831 4.81855C1.29644 5.54512 1.06675 7.1998 1.06675 7.1998C1.06675 7.1998 0.822998 9.14512 0.822998 11.0857L0.822998 12.9045C0.822998 14.8451 1.06206 16.7904 1.06206 16.7904C1.06206 16.7904 1.29644 18.4451 2.01362 19.1717C2.92769 20.1279 4.12769 20.0951 4.66206 20.1982C6.58394 20.3811 12.823 20.4373 12.823 20.4373C12.823 20.4373 17.8667 20.4279 21.223 20.1889C21.6917 20.1326 22.7136 20.1279 23.6277 19.1717C24.3496 18.4451 24.5839 16.7904 24.5839 16.7904C24.5839 16.7904 24.823 14.8498 24.823 12.9045V11.0857C24.823 9.14512 24.5839 7.1998 24.5839 7.1998ZM10.3433 15.1123L10.3433 8.36699L16.8261 11.7514L10.3433 15.1123Z" fill="#999999"/>
</g>
<defs>
<clipPath id="clip0_213_3281">
<rect width="24" height="24" fill="white" transform="translate(0.822998)"/>
</clipPath>
</defs>
</svg>
