<svg width="25" height="24" viewBox="0 0 25 24" fill="none" xmlns="http://www.w3.org/2000/svg">
<g clip-path="url(#clip0_213_3279)">
<path d="M12.823 2.16094C16.0292 2.16094 16.4089 2.175 17.6699 2.23125C18.8417 2.28281 19.4746 2.47969 19.8964 2.64375C20.4542 2.85938 20.8574 3.12188 21.2746 3.53906C21.6964 3.96094 21.9542 4.35937 22.1699 4.91719C22.3339 5.33906 22.5308 5.97656 22.5824 7.14375C22.6386 8.40937 22.6527 8.78906 22.6527 11.9906C22.6527 15.1969 22.6386 15.5766 22.5824 16.8375C22.5308 18.0094 22.3339 18.6422 22.1699 19.0641C21.9542 19.6219 21.6917 20.025 21.2746 20.4422C20.8527 20.8641 20.4542 21.1219 19.8964 21.3375C19.4746 21.5016 18.8371 21.6984 17.6699 21.75C16.4042 21.8062 16.0246 21.8203 12.823 21.8203C9.61675 21.8203 9.23706 21.8062 7.97612 21.75C6.80425 21.6984 6.17144 21.5016 5.74956 21.3375C5.19175 21.1219 4.78862 20.8594 4.37144 20.4422C3.94956 20.0203 3.69175 19.6219 3.47612 19.0641C3.31206 18.6422 3.11519 18.0047 3.06362 16.8375C3.00737 15.5719 2.99331 15.1922 2.99331 11.9906C2.99331 8.78438 3.00737 8.40469 3.06362 7.14375C3.11519 5.97187 3.31206 5.33906 3.47612 4.91719C3.69175 4.35938 3.95425 3.95625 4.37144 3.53906C4.79331 3.11719 5.19175 2.85938 5.74956 2.64375C6.17144 2.47969 6.80894 2.28281 7.97612 2.23125C9.23706 2.175 9.61675 2.16094 12.823 2.16094ZM12.823 0C9.56519 0 9.15737 0.0140625 7.87769 0.0703125C6.60269 0.126563 5.72612 0.332812 4.96675 0.628125C4.17456 0.9375 3.50425 1.34531 2.83862 2.01562C2.16831 2.68125 1.7605 3.35156 1.45112 4.13906C1.15581 4.90313 0.949561 5.775 0.893311 7.05C0.837061 8.33437 0.822998 8.74219 0.822998 12C0.822998 15.2578 0.837061 15.6656 0.893311 16.9453C0.949561 18.2203 1.15581 19.0969 1.45112 19.8563C1.7605 20.6484 2.16831 21.3188 2.83862 21.9844C3.50425 22.65 4.17456 23.0625 4.96206 23.3672C5.72612 23.6625 6.598 23.8687 7.873 23.925C9.15269 23.9812 9.5605 23.9953 12.8183 23.9953C16.0761 23.9953 16.4839 23.9812 17.7636 23.925C19.0386 23.8687 19.9152 23.6625 20.6746 23.3672C21.4621 23.0625 22.1324 22.65 22.798 21.9844C23.4636 21.3188 23.8761 20.6484 24.1808 19.8609C24.4761 19.0969 24.6824 18.225 24.7386 16.95C24.7949 15.6703 24.8089 15.2625 24.8089 12.0047C24.8089 8.74688 24.7949 8.33906 24.7386 7.05938C24.6824 5.78438 24.4761 4.90781 24.1808 4.14844C23.8855 3.35156 23.4777 2.68125 22.8074 2.01562C22.1418 1.35 21.4714 0.9375 20.6839 0.632812C19.9199 0.3375 19.048 0.13125 17.773 0.075C16.4886 0.0140625 16.0808 0 12.823 0Z" fill="#999999"/>
<path d="M12.823 5.83594C9.41987 5.83594 6.65894 8.59687 6.65894 12C6.65894 15.4031 9.41987 18.1641 12.823 18.1641C16.2261 18.1641 18.9871 15.4031 18.9871 12C18.9871 8.59687 16.2261 5.83594 12.823 5.83594ZM12.823 15.9984C10.6152 15.9984 8.82456 14.2078 8.82456 12C8.82456 9.79219 10.6152 8.00156 12.823 8.00156C15.0308 8.00156 16.8214 9.79219 16.8214 12C16.8214 14.2078 15.0308 15.9984 12.823 15.9984Z" fill="#999999"/>
<path d="M20.6699 5.5919C20.6699 6.38877 20.023 7.03096 19.2308 7.03096C18.4339 7.03096 17.7917 6.38409 17.7917 5.5919C17.7917 4.79502 18.4386 4.15283 19.2308 4.15283C20.023 4.15283 20.6699 4.79971 20.6699 5.5919Z" fill="#999999"/>
</g>
<defs>
<clipPath id="clip0_213_3279">
<rect width="24" height="24" fill="white" transform="translate(0.822998)"/>
</clipPath>
</defs>
</svg>
