<svg width="25" height="24" viewBox="0 0 25 24" fill="none" xmlns="http://www.w3.org/2000/svg">
<g clip-path="url(#clip0_213_3280)">
<path d="M23.0464 0L2.59487 0C1.61519 0 0.822998 0.773438 0.822998 1.72969L0.822998 22.2656C0.822998 23.2219 1.61519 24 2.59487 24L23.0464 24C24.0261 24 24.823 23.2219 24.823 22.2703L24.823 1.72969C24.823 0.773438 24.0261 0 23.0464 0ZM7.94331 20.4516H4.38081L4.38081 8.99531L7.94331 8.99531L7.94331 20.4516ZM6.16206 7.43438C5.01831 7.43438 4.09487 6.51094 4.09487 5.37187C4.09487 4.23281 5.01831 3.30937 6.16206 3.30937C7.30112 3.30937 8.22456 4.23281 8.22456 5.37187C8.22456 6.50625 7.30112 7.43438 6.16206 7.43438ZM21.2746 20.4516H17.7167V14.8828C17.7167 13.5562 17.6933 11.8453 15.8652 11.8453C14.0136 11.8453 13.7324 13.2937 13.7324 14.7891L13.7324 20.4516L10.1792 20.4516L10.1792 8.99531H13.5917V10.5609H13.6386C14.1121 9.66094 15.2746 8.70938 17.0042 8.70938C20.6089 8.70938 21.2746 11.0813 21.2746 14.1656V20.4516Z" fill="#999999"/>
</g>
<defs>
<clipPath id="clip0_213_3280">
<rect width="24" height="24" fill="white" transform="translate(0.822998)"/>
</clipPath>
</defs>
</svg>
