<svg width="25" height="24" viewBox="0 0 25 24" fill="none" xmlns="http://www.w3.org/2000/svg">
<g clip-path="url(#clip0_213_3278)">
<path d="M24.823 12C24.823 5.37258 19.4504 0 12.823 0C6.19558 0 0.822998 5.37258 0.822998 12C0.822998 17.9895 5.2112 22.954 10.948 23.8542L10.948 15.4688H7.90112L7.90112 12H10.948V9.35625C10.948 6.34875 12.7396 4.6875 15.4806 4.6875C16.7931 4.6875 18.1667 4.92188 18.1667 4.92188V7.875H16.6536C15.163 7.875 14.698 8.80008 14.698 9.75V12H18.0261L17.4941 15.4688H14.698L14.698 23.8542C20.4348 22.954 24.823 17.9895 24.823 12Z" fill="#999999"/>
</g>
<defs>
<clipPath id="clip0_213_3278">
<rect width="24" height="24" fill="white" transform="translate(0.822998)"/>
</clipPath>
</defs>
</svg>
